<svg width="20" height="20" viewBox="0 0 20 20" fill="none" xmlns="http://www.w3.org/2000/svg">
<g clip-path="url(#clip0_15718_2)">
<path d="M20 5.02242H0V2.14464C0 1.22242 1.26667 0.044639 2.18889 0.000194545H17.7C18.6778 -0.055361 20 1.17797 20 2.13353V5.03353V5.02242ZM2.94444 1.92242C2.27778 2.07797 2.45556 3.27797 3.28889 3.10019C4.02222 2.94464 3.83333 1.72242 2.94444 1.92242ZM5.2 2.05575C4.52222 2.71131 5.72222 3.61131 6.15556 2.81131C6.52222 2.12242 5.65556 1.62242 5.2 2.05575ZM7.95556 1.92242C7.35556 2.03353 7.36667 3.03353 8.03333 3.11131C8.96667 3.23353 8.98889 1.73353 7.95556 1.92242ZM10.8 2.93353C10.8778 3.01131 11.0778 3.10019 11.1778 3.12242H16.2778C16.9889 3.04464 17.0556 2.06686 16.3667 1.92242H11.1C10.6444 2.02242 10.4778 2.62242 10.8 2.94464V2.93353Z" fill="black"/>
<path d="M0 6.36667V16.6667C0 18.5111 1.48889 20 3.33333 20H16.6667C18.5111 20 20 18.5111 20 16.6667V6.36667H0ZM8.51111 16.8556C8.51111 16.9667 8.3 17.1889 8.18889 17.2111C6.04444 17.2667 3.87778 17.2111 1.72222 17.2333C1.48889 17.2222 1.3 17.0222 1.27778 16.7889V10.4333C1.25556 10.2778 1.51111 9.98889 1.65556 9.98889H4.66667V10.9556H2.24444V16.2444H7.53333V13.8222H8.5V16.8333L8.51111 16.8556ZM9.95556 12.4222H8.98889V10.2333L5.25556 13.9556H5.2L4.55556 13.3L4.57778 13.2556L8.28889 9.54445H6.1V8.57778H9.96667V12.4444L9.95556 12.4222ZM15.4556 14.5444H11.8222C11.3111 14.5444 10.9111 14.1333 10.9111 13.6333C10.9111 13.1333 11.3111 12.7222 11.8222 12.7222H15.4556C15.9556 12.7222 16.3667 13.1333 16.3667 13.6333C16.3667 14.1333 15.9556 14.5444 15.4556 14.5444ZM18.1778 11.8222H11.8222C11.3111 11.8222 10.9111 11.4111 10.9111 10.9111C10.9111 10.4111 11.3111 10 11.8222 10H18.1778C18.6889 10 19.0889 10.4111 19.0889 10.9111C19.0889 11.4111 18.6889 11.8222 18.1778 11.8222Z" fill="black"/>
</g>
<defs>
<clipPath id="clip0_15718_2">
<rect width="20" height="20" fill="white"/>
</clipPath>
</defs>
</svg>
